<svg width="260" height="47" viewBox="0 0 260 47" fill="none" xmlns="http://www.w3.org/2000/svg">
<g clip-path="url(#clip0_15_3761)">
<path d="M208.814 30.598H208.618L200.323 1.74085H186.94V38.1205H195.805L195.306 8.2665H195.501L204.409 38.1205H217.249V1.73906H208.325L208.814 30.598ZM38.5578 1.73906L31.8818 38.5036H41.6237L46.56 5.13254H46.7659L51.5715 38.5053H61.2562L54.6106 1.73906H38.5578ZM93.0504 1.74264L88.5973 29.8516H88.3951L83.9635 1.74264H69.2566L68.4584 38.5036H77.4754L77.701 5.44397H77.905L83.9277 38.5036H93.0736L99.0981 5.4547L99.2986 5.44397L99.5331 38.5036H108.554L107.757 1.74264H93.0504ZM9.54138 11.1964C9.37135 10.4447 9.41252 9.69298 9.5038 9.27774C9.76332 8.09646 10.5437 6.80243 12.8006 6.80243C14.9162 6.80243 16.1476 8.13763 16.1476 10.1315V12.4027H25.1521V9.83616C25.1521 1.81602 18.0967 0.564941 12.9886 0.564941C6.57925 0.564941 1.34584 2.73598 0.381134 8.73364C0.118032 10.3445 0.0858151 11.8211 0.468835 13.6825C2.03492 21.1961 14.8446 23.3725 16.7042 28.1244C17.0532 29.0104 16.9405 30.1595 16.7686 30.8539C16.4769 32.0567 15.6661 33.3077 13.2588 33.3077C11.0072 33.3077 9.63267 31.9922 9.63267 29.9858L9.6273 26.4188H-0.0412614L-0.0466309 29.261C-0.0466309 37.4619 6.28214 39.9265 13.0602 39.9265C19.593 39.9265 24.9481 37.6749 25.8143 31.5376C26.2546 28.3553 25.9307 26.2684 25.775 25.4898C24.2483 17.7883 10.5705 15.5117 9.54138 11.1964ZM126.863 11.2823C126.686 10.5485 126.736 9.80394 126.821 9.39766C127.073 8.22354 127.846 6.94383 130.083 6.94383C132.174 6.94383 133.402 8.25934 133.402 10.2263V12.4815H142.31V9.93818C142.31 2.01648 135.319 0.76898 130.277 0.76898C123.923 0.76898 118.734 2.8917 117.791 8.85176C117.528 10.4554 117.487 11.9213 117.873 13.7558C119.425 21.1907 132.108 23.351 133.953 28.0511C134.289 28.937 134.187 30.0664 134.023 30.7555C133.729 31.9672 132.918 33.1807 130.545 33.1807C128.304 33.1807 126.955 31.8848 126.955 29.8999L126.948 26.3597H117.365V29.1769C117.365 37.2936 123.638 39.7296 130.35 39.7296C136.802 39.7296 142.113 37.4977 142.963 31.4249C143.4 28.2837 143.077 26.2147 142.925 25.4397C141.413 17.8205 127.866 15.5564 126.863 11.2823ZM167.759 28.9281C167.766 29.3952 167.752 29.9357 167.675 30.3295C167.496 31.2441 166.724 32.9748 164.217 32.9748C161.718 32.9748 160.938 31.2441 160.759 30.3295C160.682 29.9357 160.664 29.3952 160.668 28.9281V1.73548H151.554V28.0851C151.54 28.767 151.606 30.1469 151.638 30.5138C152.257 37.367 157.584 39.581 164.215 39.581C170.839 39.581 176.164 37.367 176.803 30.5138C176.835 30.1469 176.905 28.7652 176.894 28.0851V1.73548H167.757V28.9281H167.759ZM239.512 17.8348V23.2186H243.205V28.5504C243.215 29.014 243.198 29.5259 243.121 29.9465C242.96 30.9362 242.04 32.6061 239.439 32.6061C236.831 32.6061 235.915 30.9344 235.747 29.9465C235.677 29.5259 235.655 29.014 235.666 28.5504V11.7298C235.666 11.132 235.704 10.4787 235.813 10.0044C236.004 9.09876 236.781 7.33579 239.403 7.33579C242.161 7.33579 242.843 9.1972 243.008 10.0044C243.113 10.5145 243.121 11.3933 243.121 11.3897V13.4605H252.209V12.2327C252.206 12.2327 252.242 10.9763 252.136 9.829C251.468 2.91496 245.864 0.738553 239.478 0.738553C233.089 0.738553 227.617 2.93286 226.824 9.829C226.747 10.4232 226.667 11.5794 226.667 12.2327L226.663 27.7003C226.667 28.3929 226.688 28.9048 226.789 30.129C227.383 36.8229 233.089 39.2213 239.471 39.2213C245.857 39.2213 251.563 36.8229 252.161 30.129C252.259 28.903 252.274 28.3911 252.276 27.7003V17.8348H239.512Z" fill="#1428A0"/>
</g>
<defs>
<clipPath id="clip0_15_3761">
<rect width="260" height="45.8824" fill="white" transform="translate(0 0.455078)"/>
</clipPath>
</defs>
</svg>
