<svg width="112" height="19" viewBox="0 0 112 19" fill="none" xmlns="http://www.w3.org/2000/svg">
<g clip-path="url(#clip0_15_3539)">
<path d="M8.77126 1.31578C9.10133 0.531783 10.2255 0.531784 10.5556 1.31578L12.5037 5.94307C12.643 6.27359 12.9576 6.49941 13.3187 6.52802L18.3754 6.92851C19.2321 6.99637 19.5795 8.05262 18.9268 8.60502L15.0742 11.8653C14.799 12.0982 14.6788 12.4636 14.7628 12.8118L15.9399 17.6866C16.1393 18.5125 15.2298 19.1654 14.4963 18.7228L10.1671 16.1104C9.85788 15.9238 9.46899 15.9238 9.15977 16.1104L4.83054 18.7228C4.09703 19.1654 3.18753 18.5125 3.38695 17.6866L4.56401 12.8118C4.64808 12.4636 4.5279 12.0982 4.25273 11.8653L0.40006 8.60502C-0.252692 8.05262 0.0947087 6.99637 0.951457 6.92851L6.00814 6.52802C6.36933 6.49941 6.68396 6.27359 6.82311 5.94307L8.77126 1.31578Z" fill="#42A8DF"/>
<path d="M31.8169 1.31578C32.147 0.531783 33.2712 0.531784 33.6013 1.31578L35.5494 5.94307C35.6886 6.27359 36.0032 6.49941 36.3644 6.52802L41.421 6.92851C42.2778 6.99637 42.6252 8.05262 41.9724 8.60502L38.1198 11.8653C37.8447 12.0982 37.7244 12.4636 37.8085 12.8118L38.9855 17.6866C39.1849 18.5125 38.2755 19.1654 37.542 18.7228L33.2128 16.1104C32.9035 15.9238 32.5146 15.9238 32.2054 16.1104L27.8762 18.7228C27.1427 19.1654 26.2332 18.5125 26.4326 17.6866L27.6097 12.8118C27.6937 12.4636 27.5736 12.0982 27.2984 11.8653L23.4457 8.60502C22.793 8.05262 23.1404 6.99637 23.9971 6.92851L29.0538 6.52802C29.415 6.49941 29.7296 6.27359 29.8688 5.94307L31.8169 1.31578Z" fill="#42A8DF"/>
<path d="M54.8628 1.31602C55.1929 0.532028 56.3171 0.532029 56.6472 1.31603L58.5953 5.94332C58.7345 6.27383 59.0491 6.49966 59.4103 6.52826L64.4669 6.92876C65.3237 6.99661 65.6711 8.05287 65.0183 8.60526L61.1657 11.8655C60.8906 12.0984 60.7703 12.4639 60.8544 12.812L62.0314 17.6868C62.2308 18.5127 61.3214 19.1656 60.5879 18.723L56.2587 16.1106C55.9494 15.924 55.5605 15.924 55.2513 16.1106L50.9221 18.723C50.1886 19.1656 49.2791 18.5127 49.4785 17.6868L50.6556 12.812C50.7396 12.4639 50.6195 12.0984 50.3443 11.8655L46.4916 8.60526C45.8389 8.05287 46.1863 6.99661 47.043 6.92876L52.0997 6.52826C52.4609 6.49966 52.7755 6.27383 52.9147 5.94332L54.8628 1.31602Z" fill="#42A8DF"/>
<path d="M77.9085 1.31578C78.2385 0.531783 79.3627 0.531784 79.6928 1.31578L81.6409 5.94307C81.7802 6.27359 82.0948 6.49941 82.456 6.52802L87.5126 6.92851C88.3693 6.99637 88.7167 8.05262 88.064 8.60502L84.2114 11.8653C83.9362 12.0982 83.816 12.4636 83.9001 12.8118L85.0771 17.6866C85.2765 18.5125 84.367 19.1654 83.6335 18.7228L79.3043 16.1104C78.9951 15.9238 78.6062 15.9238 78.297 16.1104L73.9677 18.7228C73.2342 19.1654 72.3247 18.5125 72.5242 17.6866L73.7012 12.8118C73.7853 12.4636 73.6651 12.0982 73.3899 11.8653L69.5373 8.60502C68.8845 8.05262 69.2319 6.99637 70.0887 6.92851L75.1453 6.52802C75.5065 6.49941 75.8212 6.27359 75.9603 5.94307L77.9085 1.31578Z" fill="#42A8DF"/>
<path d="M100.954 1.31578C101.284 0.531783 102.408 0.531784 102.738 1.31578L104.687 5.94307C104.826 6.27359 105.14 6.49941 105.502 6.52802L110.558 6.92851C111.415 6.99637 111.762 8.05262 111.11 8.60502L107.257 11.8653C106.982 12.0982 106.862 12.4636 106.946 12.8118L108.123 17.6866C108.322 18.5125 107.413 19.1654 106.679 18.7228L102.35 16.1104C102.041 15.9238 101.652 15.9238 101.343 16.1104L97.0134 18.7228C96.2799 19.1654 95.3704 18.5125 95.5698 17.6866L96.7469 12.8118C96.8309 12.4636 96.7108 12.0982 96.4356 11.8653L92.5829 8.60502C91.9302 8.05262 92.2776 6.99637 93.1343 6.92851L98.191 6.52802C98.5522 6.49941 98.8668 6.27359 99.006 5.94307L100.954 1.31578Z" fill="#42A8DF"/>
</g>
<defs>
<clipPath id="clip0_15_3539">
<rect width="111.388" height="18.1379" fill="white" transform="translate(0.0610352 0.727783)"/>
</clipPath>
</defs>
</svg>
